<svg xmlns="http://www.w3.org/2000/svg" version="1.1" xmlns:xlink="http://www.w3.org/1999/xlink" width="512" height="512" x="0" y="0" viewBox="0 0 468.018 468.018" style="enable-background:new 0 0 512 512" xml:space="preserve" class=""><g><path d="M393.172 190.889c-3.419-36.044-7.63-57.813-7.396-56.598-.418-2.174 2.278 10.7-12.851-60.449a2.001 2.001 0 0 0-1.151-1.415l-35.691-15.684c-.707-26.986-20.006-50.562-47.443-55.72-39.871-7.488-75.084 27.215-68.015 67.483l-15.395 3.285c-9.801-38.727-55.542-56.772-89.223-33.703-27.406 18.766-33.867 57.19-13.058 83.971l-1.337 44.597c-.101 1.133-3.301 35.66-17.112 77.051-12.854 38.524-37.796 91.04-83.622 122.451-1.524 1.044-.93 3.429.906 3.637l54.039 6.133L25.74 404.57c-1.241 1.181-.513 3.283 1.196 3.439l28.894 2.648-17.862 23.438c-.954 1.252-.15 3.069 1.418 3.204l254.061 22.024c13.848 5.622 28.783 8.693 44.348 8.693 71.8 0 130.214-65.263 130.214-145.48 0-58.104-30.653-108.354-74.837-131.647zm-4.222-2.127a120.257 120.257 0 0 0-17.349-6.722c-1.202-25.256-3.067-43.406-3.851-50.336l14.317 4.529c.847 4.768 4.088 23.908 6.883 52.529zM369.225 75.677l11.923 56.068-47.921-15.158-14.255-62.993zm-20.644 49.963 14.989 4.741c.576 4.847 2.644 23.421 3.971 50.51a117.178 117.178 0 0 0-12.999-2.634c-1.814-26.229-4.73-45.308-5.961-52.617zm1.917 52.111a117.433 117.433 0 0 0-12.368-.689c.11-19.698-1.274-38.514-4.112-56.029l10.27 3.249c.867 4.874 4.189 24.758 6.21 53.469zM247.329 13.491c24.38-16.696 58.212-10.894 75.33 14.193a54.081 54.081 0 0 1 9.343 27.266c-16.454-7.23-15.171-6.71-15.616-6.762-.469-.057-.92.081-1.61.229-3.627-13.534-14.702-24.818-29.831-27.662-26.708-5.019-50.041 18.837-44.362 45.541 3.284 15.599 16.14 27.835 32.485 29.929 1.866 5.566 2 11.065-.869 16.08-15.849-1.688-30.024-10.13-39.032-23.331-16.869-24.724-10.516-58.585 14.162-75.483zm63.525 35.762L244.145 63.49c-1.899-12.593 3.314-25.771 14.493-33.426 19.34-13.241 45.996-3.464 52.216 19.189zm-192.587-7.864c30.959-21.202 73.729-5.163 83.051 31.237l-15.7 3.35c-3.774-13.601-14.952-24.544-29.736-27.323-26.846-5.054-50.012 19.137-44.429 45.192 3.593 16.871 16.925 28.219 32.436 30.269 1.777 5.499 1.854 11.021-1.121 16.056-15.697-1.79-29.739-10.22-38.664-23.299-16.869-24.723-10.515-58.584 14.163-75.482zm63.427 35.424-66.656 14.222c-1.749-12.486 3.464-25.489 14.538-33.072 19.231-13.168 45.721-3.578 52.118 18.85zM7.435 366.411c44.036-32.312 68.248-83.607 80.89-121.529 14.106-42.312 17.247-77.582 17.277-77.933.002-.019-.002-.037-.001-.056.192-3.332-.338 11.478 1.214-40.337 8.798 9.219 20.383 15.296 33.107 17.276-1.675 1.719-3.742 3.311-6.196 4.749a2 2 0 1 0 2.023 3.451c11.628-6.815 16.317-17.179 11.507-30.434-2.902-7.918-8.125-13.748-8.345-13.992a2 2 0 0 0-2.967 2.683c.041.045 3.524 3.942 6.193 9.488a34.145 34.145 0 0 1-26.314-24.819L221.44 72.423c5.481 22.133 23.825 40.017 47.991 43.573-1.712 1.813-3.846 3.487-6.417 4.998-1.753 1.029-1.019 3.725 1.015 3.725.344 0 .693-.089 1.011-.275 10.102-5.934 15.261-14.74 12.766-26.136-1.379-6.474-5.683-13.958-9.606-18.284a2.001 2.001 0 0 0-2.965 2.685c.045.05 3.394 3.791 6.041 9.181-12.865-2.544-22.914-12.142-26.292-24.487l69.651-14.865 14.5 64.077-181.139 38.648a2 2 0 0 0 .415 3.956c.332 0-8.017 1.756 181.477-38.675 2.931 17.637 4.358 36.645 4.242 56.574-70.112 2.177-126.549 66.572-126.549 145.42 0 24.673 5.533 47.927 15.276 68.307zm24.253 38.018 29.316-27.913c28.028 3.181-.678-.074 163.968 18.594 5.437 10.509 12.02 20.186 19.55 28.829zm11.664 29.2 17.178-22.541L248.5 428.32c10.061 10.606 21.629 19.442 34.303 26.067zm294.443 30.389c-69.595 0-126.214-63.468-126.214-141.48s56.619-141.48 126.214-141.48 126.214 63.468 126.214 141.48-56.619 141.48-126.214 141.48z" fill="#000000" opacity="1" data-original="#000000" class=""></path><path d="M318.673 198.959c-52.91 0-95.955 55.437-95.955 123.578s43.045 123.578 95.955 123.578c52.909 0 95.954-55.437 95.954-123.578s-43.045-123.578-95.954-123.578zm0 243.157c-50.704 0-91.955-53.643-91.955-119.578s41.251-119.578 91.955-119.578 91.954 53.643 91.954 119.578-41.25 119.578-91.954 119.578z" fill="#000000" opacity="1" data-original="#000000" class=""></path><path d="M323.511 312.608c1.917-8.289 1.057-17.617-3.56-24.55-2.185-66.022-5.339-66.409-7.875-66.712-2.64-.328-3.573 3.087-4.084 4.914-3.609 12.925-7.423 37.026-10.039 55.395-8.257 3.881-13.583 12.52-15.621 21.404-4.944 21.546 9.783 38.643 25.88 30.759 59.763 56.306 61.901 52.896 63.713 51.469 2.086-1.639.334-4.716-.607-6.368-9.657-16.976-36.194-51.454-47.807-66.311zm-11.802-84.778c1.097 5.155 2.77 18.94 4.081 55.641-4.008-3.187-8.844-4.226-13.589-3.254 2.551-17.723 6.125-40.022 9.508-52.387zM308.1 329.318c-3.478 2.179-7.14 2.91-10.59 2.114-9.209-2.122-14.269-14.448-11.279-27.479 4.196-18.282 21.138-26.574 30.061-14.246.029.044.058.088.09.13 8.041 11.321 3.736 31.957-8.282 39.481zm3.652 2.338c4.52-3.336 8.136-8.359 10.355-14.345 12.176 15.632 36.219 47.059 45.483 63.147-6.562-4.247-23.78-18.633-55.838-48.802zM241.762 210.318c5.258-5.756 7.813-10.234 7.813-13.692 0-13.5-14.093-13.789-27.456-12.291l-85.926 9.646c-6.653.747-11.796 1.962-15.722 3.712-4.339 1.932-6.935 5.485-7.714 10.561-.973 6.346 1.993 9.389 4.652 10.824 3.49 1.886 8.798 2.454 16.224 1.73l64.569-6.271c-10.629 11.018-20.188 22.178-28.458 33.232-19.084 25.521-33.31 51.749-40.5 70.113-4.821 12.312-11.262 30.666-2.868 40.865 3.55 4.315 8.709 6.503 15.336 6.503 22.777 0 27.559-20.883 32.915-43.051 4.266-17.642 6.026-22.683 10.53-33.291 6.314-14.299 13.045-26.512 20.006-36.3 13.933-19.595 19.106-23.151 36.599-42.29zm-39.858 39.973c-11.539 16.225-22.462 39.613-26.601 53.594-9.172 30.929-9.451 57.366-33.59 57.366-5.449 0-9.455-1.65-12.247-5.044-7.086-8.612-.614-26.35 3.503-36.865 3.522-8.996 8.815-19.825 15.732-32.187 13.986-25.005 32.638-49.971 56.184-73.73 1.249-1.26.354-3.408-1.42-3.408-.15 0 2.537-.255-70.218 6.811-6.516.632-11.205.205-13.937-1.27-1.438-.776-3.271-2.314-2.599-6.697.567-3.694 2.329-6.152 5.388-7.514 3.497-1.56 8.389-2.7 14.541-3.392l85.926-9.646c8.439-.944 14.571-.7 18.224.73 3.265 1.278 4.785 3.689 4.785 7.586 0 1.637-1.174 4.872-6.767 10.994-17.143 18.759-22.734 22.74-36.904 42.672z" fill="#000000" opacity="1" data-original="#000000" class=""></path></g></svg>